<svg width="35" height="13" viewBox="0 0 35 13" fill="none" xmlns="http://www.w3.org/2000/svg">
<path d="M17.0968 0.588379C18.5411 0.588379 19.9902 0.6639 21.4439 0.814941C22.9072 0.956543 24.3137 1.19255 25.6637 1.52295C27.0136 1.84391 28.2503 2.27344 29.3736 2.81152C30.497 3.34961 31.441 4.01514 32.2057 4.80811C32.8098 5.41227 33.2818 6.1014 33.6217 6.87549C33.9615 7.64014 34.1314 8.48975 34.1314 9.42432C34.1314 9.90576 34.0701 10.4061 33.9474 10.9253C33.8246 11.4445 33.6122 11.8929 33.3102 12.2705C33.0081 12.6387 32.588 12.8416 32.0499 12.8794C31.8611 12.9266 31.6629 12.9455 31.4552 12.936C31.2475 12.9172 31.0256 12.8888 30.7896 12.8511L26.5699 12.1572C25.8336 12.0345 25.2719 11.8127 24.8849 11.4917C24.4978 11.1707 24.2099 10.6562 24.0211 9.94824L23.3131 7.41357C23.247 7.16813 23.1526 6.98405 23.0299 6.86133C22.9166 6.73861 22.7136 6.62061 22.421 6.50732C21.8357 6.29964 21.0899 6.13916 20.1837 6.02588C19.2774 5.9126 18.2485 5.85596 17.0968 5.85596C15.9451 5.85596 14.9161 5.9126 14.0099 6.02588C13.113 6.13916 12.3673 6.29964 11.7726 6.50732C11.4893 6.62061 11.2864 6.73861 11.1637 6.86133C11.0504 6.98405 10.956 7.16813 10.8805 7.41357L10.1866 9.94824C9.98837 10.6562 9.69573 11.1707 9.30869 11.4917C8.93108 11.8127 8.37411 12.0345 7.63779 12.1572L3.41806 12.8511C3.17262 12.8888 2.94606 12.9172 2.73837 12.936C2.54013 12.9455 2.34189 12.9266 2.14365 12.8794C1.60556 12.8416 1.18548 12.6387 0.883392 12.2705C0.581309 11.8929 0.368907 11.4445 0.246185 10.9253C0.132904 10.4061 0.0762634 9.90576 0.0762634 9.42432C0.0762634 8.48975 0.246185 7.64014 0.586029 6.87549C0.925873 6.1014 1.39788 5.41227 2.00204 4.80811C2.76669 4.01514 3.7107 3.34961 4.83408 2.81152C5.95745 2.27344 7.18938 1.84391 8.52988 1.52295C9.87981 1.19255 11.2817 0.956543 12.7354 0.814941C14.1987 0.6639 15.6524 0.588379 17.0968 0.588379Z" fill="#FFFCFC"/>
</svg>
