<svg width="26" height="32" viewBox="0 0 26 32" fill="none" xmlns="http://www.w3.org/2000/svg">
<path d="M1.71973 15.5303V12.7266C1.71973 12.3584 1.85189 12.0469 2.11621 11.792C2.38053 11.5371 2.69206 11.4097 3.05078 11.4097C3.42839 11.4097 3.74935 11.5371 4.01367 11.792C4.27799 12.0469 4.41016 12.3584 4.41016 12.7266V15.4312C4.41016 17.036 4.74528 18.4425 5.41553 19.6509C6.09521 20.8498 7.04395 21.7796 8.26172 22.4404C9.47949 23.1012 10.8908 23.4316 12.4956 23.4316C13.2319 23.4316 13.9305 23.3561 14.5913 23.2051C15.2521 23.054 15.8657 22.8416 16.4321 22.5679L18.3438 24.4795C17.6924 24.8665 16.9844 25.1781 16.2197 25.4141C15.4551 25.6501 14.6479 25.8058 13.7983 25.8813V28.7842H18.9951C19.3633 28.7842 19.6795 28.9116 19.9438 29.1665C20.2082 29.4308 20.3403 29.7471 20.3403 30.1152C20.3403 30.474 20.2082 30.7808 19.9438 31.0356C19.6795 31.3 19.3633 31.4321 18.9951 31.4321H5.99609C5.62793 31.4321 5.31169 31.3 5.04736 31.0356C4.78304 30.7808 4.65088 30.474 4.65088 30.1152C4.65088 29.7471 4.78304 29.4308 5.04736 29.1665C5.31169 28.9116 5.62793 28.7842 5.99609 28.7842H11.1929V25.8813C9.33317 25.702 7.69059 25.1639 6.26514 24.2671C4.83968 23.3703 3.72575 22.1761 2.92334 20.6846C2.12093 19.193 1.71973 17.4749 1.71973 15.5303ZM20.1562 18.0791C20.4395 17.2578 20.5811 16.3752 20.5811 15.4312V12.7266C20.5811 12.3584 20.7132 12.0469 20.9775 11.792C21.2419 11.5371 21.5581 11.4097 21.9263 11.4097C22.2944 11.4097 22.606 11.5371 22.8608 11.792C23.1252 12.0469 23.2573 12.3584 23.2573 12.7266V15.5303C23.2573 17.2389 22.9316 18.7965 22.2803 20.2031L20.1562 18.0791ZM12.4956 20.5005C11.5422 20.5005 10.6878 20.2786 9.93262 19.835C9.18685 19.3818 8.59684 18.7588 8.1626 17.9658C7.72835 17.1729 7.51123 16.2524 7.51123 15.2046V13.647L14.0815 20.2031C13.5907 20.4014 13.062 20.5005 12.4956 20.5005ZM12.4956 0.449707C11.5988 0.449707 10.8011 0.647949 10.1025 1.04443C9.40397 1.43148 8.83757 1.97428 8.40332 2.67285C7.96908 3.37142 7.71419 4.18327 7.63867 5.1084V5.57568L17.4233 15.3604C17.4422 15.3132 17.4517 15.2612 17.4517 15.2046C17.4611 15.1479 17.4658 15.0913 17.4658 15.0347V5.73145C17.4658 4.68359 17.2487 3.76318 16.8145 2.97021C16.3896 2.17725 15.7996 1.55892 15.0444 1.11523C14.2987 0.671549 13.4491 0.449707 12.4956 0.449707ZM23.3848 27L0.728516 4.37207C0.520833 4.16439 0.416992 3.90007 0.416992 3.5791C0.416992 3.25814 0.520833 2.99382 0.728516 2.78613C0.955078 2.56901 1.22412 2.46045 1.53564 2.46045C1.84717 2.46045 2.11621 2.56901 2.34277 2.78613L24.9849 25.3999C25.202 25.617 25.3058 25.8813 25.2964 26.1929C25.2964 26.5044 25.1925 26.7734 24.9849 27C24.7677 27.2171 24.4987 27.321 24.1777 27.3115C23.8662 27.3115 23.6019 27.2077 23.3848 27Z" fill="black"/>
</svg>
