<svg width="19" height="25" viewBox="0 0 19 25" fill="none" xmlns="http://www.w3.org/2000/svg">
<path d="M2.21899 24.8691C1.53931 24.8691 1.02954 24.6992 0.689697 24.3594C0.359294 24.0195 0.194092 23.5098 0.194092 22.8301V2.7085C0.194092 2.03825 0.364014 1.5332 0.703857 1.19336C1.0437 0.853516 1.54875 0.683594 2.21899 0.683594H5.54663C6.20744 0.683594 6.70776 0.848796 7.04761 1.1792C7.39689 1.5096 7.57153 2.01937 7.57153 2.7085V22.8301C7.57153 23.5098 7.39689 24.0195 7.04761 24.3594C6.70776 24.6992 6.20744 24.8691 5.54663 24.8691H2.21899ZM12.9524 24.8691C12.2727 24.8691 11.7629 24.6992 11.4231 24.3594C11.0833 24.0195 10.9133 23.5098 10.9133 22.8301V2.7085C10.9133 2.03825 11.0833 1.5332 11.4231 1.19336C11.7629 0.853516 12.2727 0.683594 12.9524 0.683594H16.2517C16.9314 0.683594 17.4412 0.848796 17.781 1.1792C18.1208 1.5096 18.2908 2.01937 18.2908 2.7085V22.8301C18.2908 23.5098 18.1208 24.0195 17.781 24.3594C17.4412 24.6992 16.9314 24.8691 16.2517 24.8691H12.9524Z" fill="black"/>
</svg>
